<?xml version="1.0" standalone="no"?>
<!DOCTYPE svg PUBLIC "-//W3C//DTD SVG 20010904//EN"
 "http://www.w3.org/TR/2001/REC-SVG-20010904/DTD/svg10.dtd">
<svg version="1.0" xmlns="http://www.w3.org/2000/svg"
 width="2000.000000pt" height="2000.000000pt" viewBox="0 0 2000.000000 2000.000000"
 preserveAspectRatio="xMidYMid meet">
<metadata>
Created by potrace 1.14, written by Peter Selinger 2001-2017
</metadata>
<g transform="translate(0.000000,2000.000000) scale(0.100000,-0.100000)"
fill="#000000" stroke="none">
<path d="M9687 19994 c-1 -1 -69 -5 -152 -8 -233 -11 -371 -21 -550 -41 -38
-4 -86 -9 -105 -10 -19 -2 -53 -6 -75 -9 -22 -3 -78 -10 -125 -16 -47 -5 -96
-12 -110 -14 -14 -3 -60 -10 -103 -16 -43 -6 -91 -14 -105 -16 -46 -8 -136
-24 -158 -28 -12 -2 -37 -7 -57 -10 -19 -3 -100 -20 -179 -37 -79 -17 -156
-33 -173 -35 -16 -3 -37 -7 -45 -10 -8 -3 -26 -8 -40 -10 -14 -3 -41 -9 -60
-14 -19 -5 -37 -10 -40 -10 -3 -1 -48 -12 -100 -26 -52 -13 -105 -27 -117 -29
-138 -30 -854 -263 -968 -316 -11 -5 -49 -20 -85 -33 -302 -113 -880 -387
-1190 -563 -19 -11 -60 -34 -91 -51 -196 -109 -503 -302 -774 -489 -164 -113
-650 -483 -685 -523 -3 -3 -34 -30 -70 -60 -237 -198 -593 -536 -810 -769
-250 -268 -512 -576 -659 -776 -25 -33 -48 -62 -51 -65 -4 -3 -24 -30 -45 -60
-21 -30 -63 -87 -92 -127 -101 -138 -300 -440 -431 -656 -73 -120 -132 -219
-132 -222 0 -2 -15 -30 -34 -62 -72 -124 -121 -217 -235 -448 -148 -299 -256
-541 -341 -760 -13 -33 -29 -73 -36 -90 -19 -46 -103 -280 -131 -365 -13 -41
-27 -82 -30 -90 -3 -8 -7 -19 -8 -25 -2 -5 -17 -53 -33 -105 -97 -302 -192
-674 -262 -1020 -27 -135 -52 -265 -55 -290 -3 -25 -8 -52 -10 -60 -2 -8 -7
-35 -10 -60 -3 -25 -11 -74 -16 -110 -6 -36 -13 -81 -15 -100 -2 -19 -6 -48
-9 -65 -2 -16 -7 -55 -10 -85 -3 -30 -8 -71 -10 -90 -2 -19 -7 -62 -10 -95 -3
-33 -8 -80 -11 -105 -2 -25 -7 -83 -10 -130 -3 -47 -7 -101 -9 -120 -25 -246
-25 -1038 0 -1340 2 -30 7 -91 10 -135 3 -44 7 -98 10 -120 11 -99 16 -144 20
-200 3 -33 7 -71 10 -85 2 -14 7 -47 10 -75 11 -95 36 -260 61 -405 14 -80 28
-158 31 -175 5 -34 54 -264 83 -395 39 -178 100 -403 204 -750 28 -94 171
-506 197 -567 5 -13 13 -33 19 -45 5 -13 34 -84 64 -159 30 -75 67 -163 81
-195 15 -32 32 -72 40 -89 232 -534 620 -1215 975 -1710 47 -66 104 -145 125
-175 22 -30 42 -57 45 -60 3 -3 19 -23 35 -45 112 -152 428 -531 590 -704 147
-159 426 -441 525 -531 19 -18 58 -53 85 -79 28 -25 88 -80 135 -121 46 -41
98 -87 115 -102 126 -111 471 -383 645 -507 63 -45 122 -88 130 -94 8 -7 42
-30 75 -51 33 -22 61 -43 63 -48 2 -4 7 -8 12 -8 4 0 64 -37 133 -83 69 -45
147 -95 174 -111 126 -77 325 -196 328 -196 2 0 30 -15 62 -34 229 -134 669
-350 973 -478 91 -38 174 -73 185 -78 211 -96 947 -336 1240 -406 6 -1 57 -14
115 -28 180 -43 416 -94 520 -111 19 -3 67 -12 105 -20 62 -12 298 -49 395
-61 19 -2 46 -6 60 -9 14 -2 54 -7 90 -11 36 -3 72 -7 80 -9 27 -5 176 -19
320 -30 52 -4 111 -9 130 -10 231 -24 1106 -24 1340 0 19 2 76 6 125 10 94 7
107 8 220 19 124 13 225 24 275 31 14 2 49 7 79 10 30 4 63 9 75 11 12 2 35 6
51 8 17 3 44 7 60 10 17 2 50 8 75 11 25 4 54 9 65 11 11 2 49 9 84 15 36 5
67 12 71 14 3 2 29 7 56 10 27 4 65 10 84 15 19 5 71 16 115 25 257 52 720
178 1015 275 204 67 463 160 474 171 6 5 16 9 24 9 8 0 28 7 45 15 18 8 66 27
107 43 81 32 266 113 420 183 103 46 503 248 585 294 322 181 490 282 720 434
238 157 611 426 689 496 6 6 45 37 86 70 440 348 973 867 1350 1315 30 36 57
67 60 70 28 24 318 400 441 570 138 191 354 518 444 672 290 495 448 806 635
1241 44 103 80 191 80 195 1 4 9 25 20 47 11 22 19 47 20 55 0 9 4 20 9 25 4
6 21 46 36 90 15 44 34 94 41 110 21 49 148 440 192 590 77 261 206 805 227
950 3 22 10 60 15 85 5 25 17 88 25 140 21 124 23 135 30 199 4 30 8 62 10 71
2 9 6 41 9 71 3 30 8 65 10 79 3 14 7 52 11 85 3 33 8 83 11 110 10 103 13
132 19 220 4 50 8 106 10 125 19 177 25 866 11 1140 -11 202 -21 354 -30 445
-2 17 -7 64 -10 105 -4 41 -9 86 -11 100 -2 14 -6 48 -10 75 -3 28 -7 67 -10
88 -3 20 -7 54 -10 75 -6 51 -17 123 -21 147 -2 10 -6 37 -9 60 -6 39 -20 127
-30 182 -3 16 -8 44 -11 63 -3 19 -16 87 -29 150 -13 63 -26 126 -29 140 -27
139 -110 469 -178 700 -16 58 -31 112 -33 120 -11 52 -214 635 -245 705 -5 11
-23 56 -40 100 -18 44 -36 89 -40 100 -5 11 -44 99 -86 195 -71 164 -259 553
-321 665 -290 530 -521 893 -826 1300 -104 139 -310 400 -327 415 -3 3 -30 34
-60 70 -303 359 -743 804 -1080 1090 -47 40 -98 84 -115 99 -53 46 -238 195
-304 245 -36 27 -69 52 -75 57 -157 126 -509 368 -778 537 -81 51 -150 92
-152 92 -2 0 -41 23 -85 50 -44 28 -83 50 -86 50 -3 0 -22 10 -43 23 -67 42
-153 88 -407 216 -254 129 -304 153 -525 248 -69 29 -134 58 -145 63 -29 14
-354 140 -361 140 -3 0 -20 6 -37 14 -61 28 -471 162 -662 216 -229 66 -647
167 -799 194 -16 3 -52 10 -80 15 -28 6 -64 13 -81 16 -252 43 -243 42 -310
51 -27 3 -59 8 -70 10 -44 8 -233 33 -305 39 -36 3 -81 8 -100 10 -32 4 -97
10 -210 20 -25 2 -85 6 -135 9 -49 4 -135 9 -190 12 -90 6 -792 13 -798 8z"/>
</g>
</svg>
